<svg xmlns="http://www.w3.org/2000/svg" width="180" height="36"><path fill="#8E8E8E" d="M3.5 13.4h4.1v1.4h-6V5.6h1.9v7.8zM11.7 15c-1 0-1.8-.3-2.4-.9-.6-.6-.9-1.4-.9-2.4v-.3c0-1 .3-1.9.8-2.5s1.3-1 2.3-1c.9 0 1.6.3 2.1.8.5.6.7 1.3.7 2.3v1h-4.1c0 .5.2.9.4 1.1.3.3.6.4 1.1.4.4 0 .8 0 1.1-.1s.6-.2.9-.4l.5 1.1c-.3.2-.6.4-1.1.6s-.9.3-1.4.3zm-.2-5.7c-.4 0-.7.1-.9.4-.2.3-.3.6-.4 1h2.3v-.1c0-.4-.1-.7-.2-.9-.1-.3-.4-.4-.8-.4zM17.2 8l.1 1c.2-.4.5-.6.8-.8s.7-.3 1.1-.3c.7 0 1.2.2 1.6.7.4.4.6 1.2.6 2.1v4.2h-1.9v-4.2c0-.5-.1-.8-.3-1-.2-.2-.4-.3-.8-.3-.3 0-.5.1-.7.2-.2.1-.4.2-.5.4v5h-1.9V8h1.9zM26.5 12.9c0-.2-.1-.4-.3-.5-.2-.1-.6-.3-1.1-.4-.8-.2-1.4-.4-1.8-.7s-.6-.8-.6-1.3c0-.6.2-1.1.7-1.5s1.2-.6 2-.6c.9 0 1.6.2 2.1.6s.8.9.8 1.5h-1.8c0-.3-.1-.5-.3-.7s-.4-.3-.8-.3c-.3 0-.5.1-.7.2s-.3.3-.3.5.1.4.3.5c.2.1.5.3 1.1.4.8.2 1.5.4 1.9.7s.6.8.6 1.4c0 .6-.3 1.1-.8 1.5s-1.2.8-2.1.8-1.6-.2-2.2-.7c-.5-.5-.8-1-.8-1.6h1.7c0 .4.1.6.4.8s.5.2.9.2c.3 0 .6-.1.8-.2.2-.2.3-.3.3-.6z"/><path fill="#414141" d="M6.4 28c0-.4-.1-.6-.4-.9-.2-.2-.7-.4-1.3-.6-1.1-.3-1.9-.7-2.4-1.1-.6-.4-.8-1-.8-1.8s.3-1.4.9-1.9c.6-.4 1.4-.7 2.4-.7s1.8.3 2.5.8c.6.5.9 1.2.9 2H6.4c0-.5-.1-.8-.4-1.1-.3-.2-.7-.4-1.2-.4s-.8.1-1.1.3c-.2.2-.4.5-.4.8s.1.6.4.8.7.4 1.4.6c1 .3 1.8.7 2.3 1.1.6.7.9 1.3.9 2.1s-.3 1.4-.9 1.9-1.4.7-2.5.7c-1 0-1.8-.2-2.6-.7-.7-.5-1.1-1.2-1-2.2h1.8c0 .5.2.9.5 1.2.3.3.8.4 1.3.4s.9-.1 1.1-.3c.3-.4.4-.6.4-1zM11.7 21.9v1.7h1.2v1.3h-1.2v3.5c0 .3.1.5.2.6.1.1.3.2.4.2h.3c.1 0 .2 0 .2-.1l.2 1.3c-.2.1-.4.1-.5.1h-.6c-.6 0-1.1-.2-1.5-.5-.3-.4-.5-.9-.5-1.7v-3.5h-1v-1.3h1v-1.7h1.8v.1zM18.1 30.4c-.1-.2-.1-.3-.2-.5 0-.2-.1-.4-.1-.5-.2.3-.4.6-.8.8-.3.2-.7.3-1.1.3-.7 0-1.3-.2-1.7-.6s-.6-.9-.6-1.5c0-.7.3-1.2.8-1.6s1.3-.6 2.3-.6h1v-.5c0-.3-.1-.6-.3-.8-.2-.2-.4-.3-.8-.3-.3 0-.5.1-.7.2s-.2.3-.2.6H14c0-.6.2-1.1.8-1.5.5-.4 1.2-.6 2.1-.6.8 0 1.5.2 2 .6s.8 1 .8 1.8v2.8c0 .3 0 .6.1.9 0 .3.1.6.2.8h-1.9v.2zm-1.7-1.2c.3 0 .6-.1.9-.2.3-.2.4-.3.5-.6v-1h-1c-.4 0-.7.1-.9.3-.2.2-.3.4-.3.7 0 .2.1.4.2.6.1.1.3.2.6.2zM22.7 23.6l.1 1c.2-.4.5-.6.8-.8.3-.2.7-.3 1.1-.3.7 0 1.2.2 1.6.7s.6 1.2.6 2.1v4.2H25v-4.2c0-.5-.1-.8-.3-1-.2-.2-.4-.3-.8-.3-.3 0-.5.1-.7.2s-.4.2-.5.4v5H21v-6.9h1.7v-.1zM28.1 27c0-1.1.2-2 .7-2.6.5-.7 1.1-1 2-1 .3 0 .7.1.9.2.3.1.5.4.7.6v-3.8h1.9v9.9h-1.6l-.2-.8c-.2.3-.5.6-.8.7s-.6.3-1 .3c-.8 0-1.5-.3-2-.9s-.7-1.4-.7-2.5l.1-.1zm1.8.2c0 .6.1 1.1.3 1.4.2.3.5.5 1 .5.3 0 .5-.1.7-.2.2-.1.4-.3.5-.5v-2.9c-.1-.2-.3-.4-.5-.5s-.4-.2-.7-.2c-.5 0-.8.2-1 .6s-.3.9-.3 1.6v.2zM39.7 30.4c-.1-.2-.1-.3-.2-.5 0-.2-.1-.4-.1-.5-.2.3-.4.6-.8.8-.3.2-.7.3-1.1.3-.7 0-1.3-.2-1.7-.6s-.6-.9-.6-1.5c0-.7.3-1.2.8-1.6s1.3-.6 2.3-.6h1v-.5c0-.3-.1-.6-.3-.8-.2-.2-.4-.3-.8-.3-.3 0-.5.1-.7.2s-.2.3-.2.6h-1.8c0-.6.2-1.1.8-1.5.5-.4 1.2-.6 2.1-.6.8 0 1.5.2 2 .6s.8 1 .8 1.8v2.8c0 .3 0 .6.1.9 0 .3.1.6.2.8h-1.8v.2zM38 29.2c.3 0 .6-.1.9-.2.3-.2.4-.3.5-.6v-1h-1c-.4 0-.7.1-.9.3-.2.2-.3.4-.3.7 0 .2.1.4.2.6.2.1.4.2.6.2zM46.3 25.2h-.7c-.3 0-.5.1-.7.2s-.3.3-.4.5v4.6h-1.8v-6.9h1.7l.1 1c.2-.4.4-.6.6-.8.3-.2.6-.3.9-.3h.3c.1 0 .2 0 .2.1l-.2 1.6zM46.8 27c0-1.1.2-2 .7-2.6.5-.7 1.1-1 2-1 .3 0 .7.1.9.2.3.1.5.4.7.6v-3.8H53v9.9h-1.6l-.2-.8c-.2.3-.5.6-.8.7s-.6.3-1 .3c-.8 0-1.5-.3-2-.9s-.7-1.4-.7-2.5l.1-.1zm1.9.2c0 .6.1 1.1.3 1.4s.5.5 1 .5c.3 0 .5-.1.7-.2s.4-.3.5-.5v-2.9c-.1-.2-.3-.4-.5-.5s-.4-.2-.7-.2c-.5 0-.8.2-1 .6s-.3.9-.3 1.6v.2z"/><g fill="none" stroke-width="2" stroke-miterlimit="10"><path stroke="#8F9BAC" d="M150.5 11.3c-2-1.1-4.4-1.6-6.7-1.6h-1.1c-.8 0-1.4.6-1.5 1.5-.6 4.5-.6 9 0 13.5.1.9.8 1.5 1.5 1.5h1.1c2.3 0 4.6-.5 6.7-1.6 2.3-1.2 4.6-3.3 4.6-6.7s-2.4-5.4-4.6-6.6z"/><path stroke="#F2B527" stroke-linecap="round" d="M136.7 11.5H121M136.7 25.5H121M135.1 18.5H121"/></g></svg>